<svg width="90" height="90" viewBox="0 0 90 90" fill="none" xmlns="http://www.w3.org/2000/svg">
<rect width="90" height="90" fill="#FF6632"/>
<path d="M23.1291 32.7759L22.0653 16.0534C22.0653 15.472 21.5937 15 21.0129 15H20.5529C19.9721 15 19.5005 15.472 19.5005 16.0534V29.4602C19.5005 30.0416 19.029 30.5137 18.4482 30.5137C17.8674 30.5137 17.3958 30.0416 17.3958 29.4602V16.0534C17.3958 15.472 16.9243 15 16.3435 15H15.8834C15.3026 15 14.8311 15.472 14.8311 16.0534V29.4602C14.8311 30.0416 14.3595 30.5137 13.7787 30.5137C13.1979 30.5137 12.7264 30.0416 12.7264 29.4602V16.0534C12.7264 15.472 12.2548 15 11.674 15H11.214C10.6332 15 10.1616 15.472 10.1616 16.0534L9.01726 32.7932C8.8735 34.9346 9.63257 37.0357 11.1105 38.59C11.72 39.2289 12.3526 39.8794 12.8816 40.3802C13.589 41.0537 14.026 41.969 14.095 42.9418C14.1928 44.2601 14.1985 46.2 14.0087 49.0494C13.8132 51.9565 13.566 56.6883 13.1347 61.3625C12.4158 69.151 11.9788 76.928 16.2112 76.928C20.4436 76.928 19.9088 68.9553 19.2073 61.3625C18.7357 56.2508 18.4137 51.3405 18.2872 49.0494C18.1377 46.3727 18.1779 44.2313 18.2872 42.7289C18.3562 41.7272 18.7817 40.7889 19.5063 40.0924C19.9778 39.6376 20.5126 39.0965 21.0244 38.5612C22.5138 37.0184 23.2787 34.9173 23.1464 32.7702L23.1291 32.7759Z" fill="white"/>
<path d="M80.8015 28.4527C80.8015 22.0861 77.2592 15.2646 73.1188 15.2646C68.9784 15.2646 65.8098 22.0861 65.8098 28.4527C65.8098 32.8276 67.3107 35.8497 69.5937 37.3061C70.7093 38.0199 71.4339 39.2 71.4281 40.524C71.4166 43.5404 71.3534 47.3281 71.2383 49.0493C71.0428 51.9563 70.7956 56.6881 70.3643 61.3624C69.6454 69.1508 69.2084 76.9278 73.4408 76.9278C77.6732 76.9278 77.1384 68.9551 76.4369 61.3624C75.9653 56.2506 75.6433 51.3404 75.5168 49.0493C75.4248 47.3914 75.2695 43.5001 75.189 40.4204C75.1545 39.0906 75.8561 37.8933 76.9602 37.1565C79.2316 35.6483 80.8015 32.6894 80.8015 28.4527Z" fill="white"/>
<path d="M36.3095 37.9743C37.9864 37.9743 39.3458 36.6135 39.3458 34.9349C39.3458 33.2563 37.9864 31.8955 36.3095 31.8955C34.6326 31.8955 33.2732 33.2563 33.2732 34.9349C33.2732 36.6135 34.6326 37.9743 36.3095 37.9743Z" fill="white"/>
<path d="M53.8315 37.9743C55.5084 37.9743 56.8678 36.6135 56.8678 34.9349C56.8678 33.2563 55.5084 31.8955 53.8315 31.8955C52.1546 31.8955 50.7952 33.2563 50.7952 34.9349C50.7952 36.6135 52.1546 37.9743 53.8315 37.9743Z" fill="white"/>
<path d="M56.3386 41.1631H34.8602C34.0667 41.1631 33.4226 41.8078 33.4226 42.6022C33.4226 43.3966 34.0667 44.0413 34.8602 44.0413H44.8662C43.8944 45.0947 43.3423 46.7008 43.3423 48.681C43.3423 52.5494 45.562 55.1628 48.9204 55.1628C52.2787 55.1628 54.4984 52.5494 54.4984 48.681C54.4984 46.7008 53.9291 45.0947 52.9688 44.0413H56.3386C57.1322 44.0413 57.7762 43.3966 57.7762 42.6022C57.7762 41.8078 57.1322 41.1631 56.3386 41.1631ZM52.6985 48.2435C52.6985 50.9145 51.1631 52.7393 48.9204 52.7393C46.6777 52.7393 45.1423 50.9145 45.1423 48.2435C45.1423 46.246 46.0336 44.6803 47.431 44.0413H47.4827V47.8118C47.4827 48.6062 48.1268 49.2509 48.9204 49.2509C49.714 49.2509 50.358 48.6062 50.358 47.8118V44.0413H50.4098C51.8072 44.686 52.6985 46.246 52.6985 48.2435Z" fill="white"/>
</svg>
