<svg width="494" height="158" viewBox="0 0 494 158" fill="none" xmlns="http://www.w3.org/2000/svg">
<path d="M71.6134 57.8053C71.6134 61.8771 68.9099 64.2874 64.9979 64.2874C49.2067 64.2874 40.1846 73.4771 40.1846 93.0566V118.359C40.1846 122.728 37.778 125.436 33.5691 125.436C29.3601 125.436 27.0969 122.728 27.0969 118.359V58.8618C27.0969 54.3387 29.5035 51.631 33.5691 51.631C37.6346 51.631 40.1846 54.3387 40.1846 58.8618V64.1335H40.4816C45.4483 55.6925 53.5692 51.1797 64.9979 51.1797C68.9099 51.1797 71.6134 53.59 71.6134 57.8053Z" fill="#FF6632"/>
<path d="M149.372 85.3644C149.372 90.6362 146.207 93.6516 140.943 93.6516H88.1524C90.262 106 99.581 114.134 113.273 114.134C122.141 114.134 129.064 110.667 133.427 105.549C134.778 104.041 136.437 103.139 138.537 103.139C142.295 103.139 144.855 105.703 144.855 109.313C144.855 110.667 144.405 112.021 143.504 113.231C136.734 121.364 126.064 126.339 113.273 126.339C89.8114 126.339 74.3171 111.129 74.3171 88.5336C74.3171 65.9388 89.8114 50.7285 112.515 50.7285C133.724 50.7285 149.361 65.7849 149.361 85.067V85.3644H149.372ZM88.4596 81.8977H136.591C134.031 70.4516 125.009 62.9234 112.525 62.9234C100.042 62.9234 91.0198 70.4516 88.4596 81.8977Z" fill="#FF6632"/>
<path d="M228.03 113.231C221.415 121.672 210.887 126.339 198.404 126.339C175.69 126.339 160.206 110.975 160.206 88.5336C160.206 66.0926 175.7 50.7285 198.404 50.7285C209.536 50.7285 219.162 54.6465 226.382 61.8773C227.437 63.0875 228.041 64.5849 228.041 66.4003C228.041 70.0208 225.481 72.5747 221.876 72.5747C220.217 72.5747 218.568 71.9695 217.36 70.7695C211.942 65.4977 206.228 62.9337 198.414 62.9337C183.678 62.9337 173.601 73.3234 173.601 88.5439C173.601 103.764 183.678 114.154 198.414 114.154C206.689 114.154 213.458 111.293 218.117 105.57C219.172 104.216 220.975 103.159 223.084 103.159C226.843 103.159 229.403 105.57 229.403 109.334C229.403 110.687 228.952 112.041 228.051 113.252L228.03 113.231Z" fill="#FF6632"/>
<path d="M351.206 88.5336C351.206 111.282 336.767 126.339 315.415 126.339C303.536 126.339 294.063 121.969 288.338 114.287H288.041V146.369C288.041 150.739 285.635 153.446 281.426 153.446C277.217 153.446 274.954 150.739 274.954 146.369V58.8516C274.954 54.3285 277.36 51.6208 281.426 51.6208C285.491 51.6208 288.041 54.3285 288.041 58.8516V62.7695H288.338C294.053 55.2413 303.525 50.7183 315.415 50.7183C336.767 50.7183 351.206 65.9285 351.206 88.5234V88.5336ZM337.822 88.5336C337.822 73.3234 327.745 62.9234 313.008 62.9234C298.272 62.9234 288.041 73.467 288.041 88.5336C288.041 103.6 298.425 114.144 313.008 114.144C327.591 114.144 337.822 103.754 337.822 88.5336Z" fill="#FF6632"/>
<path d="M463.107 113.231C456.491 121.672 445.964 126.339 433.48 126.339C410.766 126.339 395.282 110.975 395.282 88.5336C395.282 66.0926 410.777 50.7285 433.48 50.7285C444.612 50.7285 454.238 54.6465 461.458 61.8773C462.513 63.0875 463.117 64.5849 463.117 66.4003C463.117 70.0208 460.557 72.5747 456.952 72.5747C455.293 72.5747 453.644 71.9695 452.436 70.7695C447.019 65.4977 441.304 62.9337 433.491 62.9337C418.754 62.9337 408.677 73.3234 408.677 88.5439C408.677 103.764 418.754 114.154 433.491 114.154C441.765 114.154 448.534 111.293 453.194 105.57C454.249 104.216 456.051 103.159 458.161 103.159C461.919 103.159 464.479 105.57 464.479 109.334C464.479 110.687 464.029 112.041 463.127 113.252L463.107 113.231Z" fill="#FF6632"/>
<path d="M264.764 42.9026L262.828 12.5642C262.828 11.5078 261.978 10.6565 260.924 10.6565H260.094C259.039 10.6565 258.189 11.5078 258.189 12.5642V36.8821C258.189 37.9385 257.339 38.7898 256.285 38.7898C255.23 38.7898 254.38 37.9385 254.38 36.8821V12.5642C254.38 11.5078 253.53 10.6565 252.475 10.6565H251.646C250.591 10.6565 249.741 11.5078 249.741 12.5642V36.8821C249.741 37.9385 248.891 38.7898 247.836 38.7898C246.781 38.7898 245.931 37.9385 245.931 36.8821V12.5642C245.931 11.5078 245.081 10.6565 244.026 10.6565H243.197C242.142 10.6565 241.292 11.5078 241.292 12.5642L239.213 42.9334C238.947 46.8103 240.309 50.6154 242.982 53.4257C244.037 54.5436 245.132 55.6616 246.064 56.5641V117.938C246.064 122.564 248.246 125.446 251.932 125.446C255.619 125.446 257.933 122.574 257.933 117.938V56.4308C258.855 55.5488 259.91 54.4821 260.944 53.4154C263.648 50.6155 265.04 46.8001 264.795 42.9026H264.764Z" fill="#FF6632"/>
<path d="M387.274 35.3436C387.274 23.4257 380.648 10.6565 372.896 10.6565C365.144 10.6565 359.225 23.4257 359.225 35.3436C359.225 44.2975 362.574 50.2257 367.52 52.6155C367.397 53.3231 367.305 54.0718 367.305 54.8923V117.938C367.305 122.564 369.486 125.446 373.173 125.446C376.859 125.446 379.174 122.574 379.174 117.938V54.8923C379.174 53.959 379.061 53.118 378.908 52.3282C383.772 49.7847 387.264 43.9795 387.264 35.3436H387.274Z" fill="#FF6632"/>
</svg>
