<svg width="110" height="110" viewBox="0 0 110 110" fill="none" xmlns="http://www.w3.org/2000/svg">
<rect width="110" height="110" rx="20" fill="#FF6632"/>
<path d="M33.1291 41.7759L32.0653 25.0534C32.0653 24.472 31.5937 24 31.0129 24H30.5529C29.9721 24 29.5005 24.472 29.5005 25.0534V38.4602C29.5005 39.0416 29.029 39.5137 28.4482 39.5137C27.8674 39.5137 27.3958 39.0416 27.3958 38.4602V25.0534C27.3958 24.472 26.9243 24 26.3435 24H25.8834C25.3026 24 24.8311 24.472 24.8311 25.0534V38.4602C24.8311 39.0416 24.3595 39.5137 23.7787 39.5137C23.1979 39.5137 22.7264 39.0416 22.7264 38.4602V25.0534C22.7264 24.472 22.2548 24 21.674 24H21.214C20.6332 24 20.1616 24.472 20.1616 25.0534L19.0173 41.7932C18.8735 43.9346 19.6326 46.0357 21.1105 47.59C21.72 48.2289 22.3526 48.8794 22.8816 49.3802C23.589 50.0537 24.026 50.969 24.095 51.9418C24.1928 53.2601 24.1985 55.2 24.0087 58.0494C23.8132 60.9565 23.566 65.6883 23.1347 70.3625C22.4158 78.151 21.9788 85.928 26.2112 85.928C30.4436 85.928 29.9088 77.9553 29.2073 70.3625C28.7357 65.2508 28.4137 60.3405 28.2872 58.0494C28.1377 55.3727 28.1779 53.2313 28.2872 51.7289C28.3562 50.7272 28.7817 49.7889 29.5063 49.0924C29.9778 48.6376 30.5126 48.0965 31.0244 47.5612C32.5138 46.0184 33.2787 43.9173 33.1464 41.7702L33.1291 41.7759Z" fill="white"/>
<path d="M90.8015 37.4527C90.8015 31.0861 87.2592 24.2646 83.1188 24.2646C78.9784 24.2646 75.8098 31.0861 75.8098 37.4527C75.8098 41.8276 77.3107 44.8497 79.5937 46.3061C80.7093 47.0199 81.4339 48.2 81.4281 49.524C81.4166 52.5404 81.3534 56.3281 81.2383 58.0493C81.0428 60.9563 80.7956 65.6881 80.3643 70.3624C79.6454 78.1508 79.2084 85.9278 83.4408 85.9278C87.6732 85.9278 87.1384 77.9551 86.4369 70.3624C85.9653 65.2506 85.6433 60.3404 85.5168 58.0493C85.4248 56.3914 85.2695 52.5001 85.189 49.4204C85.1545 48.0906 85.8561 46.8933 86.9602 46.1565C89.2316 44.6483 90.8015 41.6894 90.8015 37.4527Z" fill="white"/>
<path d="M46.3095 46.9743C47.9864 46.9743 49.3458 45.6135 49.3458 43.9349C49.3458 42.2563 47.9864 40.8955 46.3095 40.8955C44.6326 40.8955 43.2732 42.2563 43.2732 43.9349C43.2732 45.6135 44.6326 46.9743 46.3095 46.9743Z" fill="white"/>
<path d="M63.8315 46.9743C65.5084 46.9743 66.8678 45.6135 66.8678 43.9349C66.8678 42.2563 65.5084 40.8955 63.8315 40.8955C62.1546 40.8955 60.7952 42.2563 60.7952 43.9349C60.7952 45.6135 62.1546 46.9743 63.8315 46.9743Z" fill="white"/>
<path d="M66.3386 50.1631H44.8602C44.0667 50.1631 43.4226 50.8078 43.4226 51.6022C43.4226 52.3966 44.0667 53.0413 44.8602 53.0413H54.8662C53.8944 54.0947 53.3423 55.7008 53.3423 57.681C53.3423 61.5494 55.562 64.1628 58.9204 64.1628C62.2787 64.1628 64.4984 61.5494 64.4984 57.681C64.4984 55.7008 63.9291 54.0947 62.9688 53.0413H66.3386C67.1322 53.0413 67.7762 52.3966 67.7762 51.6022C67.7762 50.8078 67.1322 50.1631 66.3386 50.1631ZM62.6985 57.2435C62.6985 59.9145 61.1631 61.7393 58.9204 61.7393C56.6777 61.7393 55.1423 59.9145 55.1423 57.2435C55.1423 55.246 56.0336 53.6803 57.431 53.0413H57.4827V56.8118C57.4827 57.6062 58.1268 58.2509 58.9204 58.2509C59.714 58.2509 60.358 57.6062 60.358 56.8118V53.0413H60.4098C61.8072 53.686 62.6985 55.246 62.6985 57.2435Z" fill="white"/>
</svg>
